# xmcd CD database file
#
# Track frame offsets:
#	150
#	21137
#	41993
#	62955
#
# Disc length: 1115 seconds
#
# Revision: 0
# Processed by: cddbd v1.5.1PL2 Copyright (c) Steve Scherf et al.
# Submitted via: CD2WAV32(JP) R3.22
#
DISCID=34045904
DTITLE=ビリーバンバン - 君の詩
DYEAR=2005
DGENRE=Pop
TTITLE0=君の詩
TTITLE1=hana ～夢の旅人～
TTITLE2=君の詩 (カラオケ)
TTITLE3=hana～夢の旅人～ (カラオケ)
EXTD=
EXTT0=
EXTT1=
EXTT2=
EXTT3=
PLAYORDER=
